<svg height="512pt" viewBox="0 -14 512.00076 512" width="512pt" xmlns="http://www.w3.org/2000/svg"><path d="m508.730469 388.074219c-4.917969-4.925781-83.34375-83.433594-137.34375-137.507813-1.535157-8.910156-1.667969-9.269531-1.667969-11.066406 0-4.332031 1.777344-8.546875 4.875-11.566406l61.160156-59.613282c18.316406-17.835937 8.648438-49.457031-17.296875-53.234374l-84.511719-12.277344c-5.257812-.765625-9.8125-4.066406-12.160156-8.839844l-37.804687-76.578125c-11.4375-23.183594-44.519531-23.1875-55.960938 0l-37.804687 76.578125c-2.347656 4.773438-6.902344 8.074219-12.15625 8.839844l-47.535156 6.910156c-4.113282.59375-6.964844 4.414062-6.371094 8.527344.601562 4.113281 4.414062 6.964844 8.539062 6.363281l47.53125-6.902344c10.164063-1.488281 18.941406-7.867187 23.488282-17.078125l37.800781-76.589844c5.929687-12.023437 23.050781-12.023437 28.976562 0l37.800781 76.589844c4.546876 9.210938 13.324219 15.589844 23.496094 17.078125l84.515625 12.277344c13.167969 1.917969 18.601563 18.160156 8.949219 27.550781l-61.160156 59.625c-7.195313 6.996094-10.734375 17.378906-8.96875 27.617188 15.628906 91.109375 14.6875 85.027344 14.6875 87.074218 0 8.6875-7.402344 16.042969-16.242188 16.042969-4.152344 0-7.484375 3.371094-7.484375 7.523438 0 17.355469 43.945313 3.914062 38.304688-29.015625l-8.597657-50.132813c11.644532 11.65625 100 100.132813 120.5625 120.691407-1.488281 1.867187 2.019532.742187-45.988281 9.601562-7.34375 1.355469-14.15625 8.167969-15.523437 15.519531-8.855469 48.046875-7.726563 44.496094-9.589844 45.980469-14.804688-14.816406-123.855469-124-133.503906-133.664062l30.832031 16.214843c3.679687 1.925781 8.226563.511719 10.160156-3.160156 1.9375-3.683594.511719-8.226563-3.160156-10.164063-63.078125-33.164062-64.75-36.253906-77.910156-34.320312-7.285157 1.003906-3.148438-.429688-85.78125 43.019531-11.292969 5.925781-23.695313-2.847656-23.695313-14.136719 0-2.148437-.769531 3.109376 14.6875-87.074218 1.785156-10.363282-1.871094-20.703125-8.96875-27.617188l-61.160156-59.625c-9.65625-9.394531-4.207031-25.636718 8.949219-27.550781l7.203125-1.050781c4.113281-.59375 6.964844-4.417969 6.363281-8.53125-.605469-4.113282-4.417969-6.960938-8.53125-6.359375l-7.203125 1.042969c-25.816406 3.761718-35.664062 35.339843-17.285156 53.234374l61.160156 59.613282c7.019531 6.835937 4.621094 14.421875 3.210938 22.632812-12.964844 12.992188-136.925782 137.085938-137.347657 137.507813-8.078125 8.050781-.027343 23.015625 11.558594 25.160156l44.070313 8.128906c1.234374.230469 3.230468 2.226563 3.453124 3.449219l8.136719 44.074219c2.15625 11.660156 17.132813 19.585937 25.160157 11.558593 6.914062-6.90625 148.53125-148.6875 160.351562-160.523437 18.242188 18.269531 151.507812 151.6875 160.351562 160.523437 8.023438 8.023438 23.003907.109376 25.160157-11.558593l8.136719-44.074219c.222656-1.222656 2.21875-3.21875 3.453124-3.449219l44.070313-8.136719c11.582031-2.125 19.640625-17.097656 11.558594-25.152343zm-421.980469 79.988281c-1.859375-1.484375-.730469 2.066406-9.597656-45.980469-1.355469-7.34375-8.167969-14.164062-15.511719-15.519531-48.019531-8.863281-44.503906-7.734375-45.988281-9.601562 14.238281-14.226563 52.835937-52.894532 120.558594-120.679688-9.308594 54.277344-9.066407 51.855469-9.066407 55.570312 0 17.144532 14.003907 31.089844 31.21875 31.089844 9.867188 0 10.253907-1.394531 61.921875-28.550781-52.894531 52.933594-119.902344 120.039063-133.535156 133.671875zm0 0"/></svg>