<svg id="Capa_1" enable-background="new 0 0 512 512" height="512" viewBox="0 0 512 512" width="512" xmlns="http://www.w3.org/2000/svg"><g><g><path d="m341.126 486.526c-12.517 0-22.665-10.147-22.665-22.665v-83.749h45.329v83.749c.001 12.518-10.147 22.665-22.664 22.665z" fill="#f1d59d"/><path d="m349.932 484.751c-2.71 1.15-5.69 1.78-8.81 1.78-12.52 0-22.66-10.15-22.66-22.67v-83.74h17.63v83.74c0 9.39 5.71 17.45 13.84 20.89z" fill="#f1b986"/><path d="m295.797 486.526c-12.517 0-22.665-10.147-22.665-22.665v-83.749h45.329v83.749c.001 12.518-10.147 22.665-22.664 22.665z" fill="#f1d59d"/><path d="m304.602 484.751c-2.71 1.15-5.69 1.78-8.81 1.78-12.52 0-22.66-10.15-22.66-22.67v-83.74h17.63v83.74c.001 9.39 5.711 17.45 13.84 20.89z" fill="#f1b986"/><path d="m185.704 486.526c-12.517 0-22.665-10.147-22.665-22.665v-83.749h45.329v83.749c0 12.518-10.147 22.665-22.664 22.665z" fill="#f1d59d"/><path d="m194.509 484.751c-2.71 1.15-5.69 1.78-8.81 1.78-12.52 0-22.66-10.15-22.66-22.67v-83.74h17.63v83.74c0 9.39 5.71 17.45 13.84 20.89z" fill="#f1b986"/><path d="m140.375 486.526c-12.517 0-22.665-10.147-22.665-22.665v-83.749h45.329v83.749c0 12.518-10.147 22.665-22.664 22.665z" fill="#f1d59d"/><path d="m149.18 484.751c-2.71 1.15-5.69 1.78-8.81 1.78-12.52 0-22.66-10.15-22.66-22.67v-83.74h17.63v83.74c0 9.39 5.71 17.45 13.84 20.89z" fill="#f1b986"/><path d="m474.001 252.389c0-25.986-21.065-47.051-47.051-47.051h-1.183c8.886-7.08 14.588-17.986 14.588-30.23 0-21.341-17.3-38.641-38.641-38.641h-321.927c-21.341 0-38.641 17.3-38.641 38.641 0 12.244 5.702 23.151 14.588 30.23h-1.183c-25.986 0-47.051 21.065-47.051 47.051s21.065 47.051 47.051 47.051h1.183c-8.886 7.08-14.588 17.986-14.588 30.231 0 21.341 17.3 38.641 38.641 38.641h7.289c-1.264 3.475-1.954 7.225-1.954 11.136 0 17.998 14.591 32.589 32.589 32.589h246.08c17.998 0 32.589-14.591 32.589-32.589 0-3.912-.691-7.661-1.954-11.136h7.288c21.341 0 38.641-17.3 38.641-38.641 0-12.244-5.702-23.151-14.588-30.231h1.183c25.986 0 47.051-21.066 47.051-47.051z" fill="#f9f6f9"/><path d="m226.78 412.039h-109.07c-9 0-17.15-3.65-23.05-9.55-5.89-5.89-9.54-14.04-9.54-23.04 0-3.91.69-7.66 1.96-11.13h-7.29c-21.34 0-38.64-17.3-38.64-38.65 0-12.24 5.7-23.15 14.58-30.23h-1.18c-25.98 0-47.05-21.06-47.05-47.05 0-25.98 21.07-47.05 47.05-47.05h1.18c-8.88-7.08-14.58-17.98-14.58-30.23 0-21.34 17.3-38.64 38.64-38.64h109.07c-21.34 0-38.64 17.3-38.64 38.64 0 12.25 5.7 23.15 14.59 30.23h-1.19c-25.98 0-47.05 21.07-47.05 47.05 0 25.99 21.07 47.05 47.05 47.05h1.19c-8.89 7.08-14.59 17.99-14.59 30.23 0 21.35 17.3 38.65 38.64 38.65h7.29c-1.26 3.47-1.96 7.22-1.96 11.13 0 9 3.65 17.15 9.55 23.04 5.9 5.9 14.04 9.55 23.04 9.55z" fill="#dddaec"/><path d="m367.284 73.621h-66.6c-45.543 0-82.463 36.92-82.463 82.463 0 31.562 17.735 58.979 43.78 72.84v4.273c0 39.755 32.228 71.983 71.983 71.983 39.755 0 71.983-32.228 71.983-71.983v-4.273c26.046-13.861 43.78-41.277 43.78-72.84.001-45.543-36.919-82.463-82.463-82.463z" fill="#f1d59d"/><path d="m360.013 300.327c-8.069 3.136-16.846 4.851-26.027 4.851-39.757 0-71.98-32.223-71.98-71.98v-4.275c-13.024-6.93-23.968-17.251-31.66-29.78s-12.125-27.276-12.125-43.058c0-45.542 36.923-82.465 82.465-82.465h52.054c-45.542 0-82.465 36.923-82.465 82.465 0 15.782 4.433 30.528 12.125 43.058 7.685 12.53 18.637 22.85 31.653 29.78v4.275c0 30.576 19.069 56.699 45.96 67.129z" fill="#f1b986"/><g fill="#f1b986"><path d="m163.469 167.448c18.126 18.126 47.513 18.126 65.639 0s18.126-47.513 0-65.639z"/><path d="m504.5 167.448c-18.126 18.126-47.513 18.126-65.639 0s-18.126-47.513 0-65.639z"/></g><path d="m451.508 66.052h-5.668c0-15.444-12.52-27.964-27.964-27.964-15.444 0-27.964 12.52-27.964 27.964v-12.614c0-15.444-12.52-27.964-27.964-27.964s-27.964 12.52-27.964 27.964c0-15.444-12.52-27.964-27.964-27.964s-27.964 12.52-27.964 27.964v12.615c0-15.444-12.52-27.964-27.964-27.964-15.444 0-27.964 12.52-27.964 27.964h-5.668c-11.343 0-20.538 9.195-20.538 20.538 0 11.343 9.195 20.538 20.538 20.538h5.668c0 15.444 12.52 27.964 27.964 27.964 15.444 0 27.964-12.52 27.964-27.964v12.614c0 15.444 12.52 27.964 27.964 27.964s27.964-12.52 27.964-27.964c0 15.444 12.52 27.964 27.964 27.964s27.964-12.52 27.964-27.964v-12.614c0 15.444 12.52 27.964 27.964 27.964 15.444 0 27.964-12.52 27.964-27.964h5.668c11.343 0 20.538-9.195 20.538-20.538 0-11.343-9.195-20.539-20.538-20.539z" fill="#f9f6f9"/><path d="m472.046 86.596c0 11.343-9.195 20.537-20.537 20.537h-5.668c0 7.72-3.129 14.712-8.186 19.769-5.064 5.064-12.049 8.193-19.776 8.193-15.446 0-27.962-12.523-27.962-27.962v12.612c0 15.446-12.523 27.962-27.969 27.962-15.439 0-27.962-12.516-27.962-27.962 0 15.446-12.523 27.962-27.962 27.962-15.446 0-27.969-12.516-27.969-27.962v-12.612c0 7.72-3.129 14.712-8.186 19.769-5.064 5.064-12.049 8.193-19.776 8.193-15.446 0-27.962-12.523-27.962-27.962h-5.668c-5.675 0-10.807-2.299-14.52-6.018-3.719-3.712-6.018-8.852-6.018-14.52 0-6.683 3.191-12.619 8.124-16.359 3.445 2.621 7.747 4.179 12.413 4.179h5.668c0 15.439 12.516 27.962 27.962 27.962 7.726 0 14.712-3.129 19.776-8.193 5.057-5.057 8.186-12.049 8.186-19.769v12.612c0 15.446 12.523 27.962 27.969 27.962 15.439 0 27.962-12.516 27.962-27.962 0 15.446 12.523 27.962 27.962 27.962 15.446 0 27.969-12.516 27.969-27.962v-12.611c0 15.439 12.516 27.962 27.962 27.962 7.726 0 14.712-3.129 19.776-8.193 5.057-5.057 8.186-12.049 8.186-19.769h5.668c4.666 0 8.968-1.558 12.413-4.179.741.556 1.448 1.173 2.107 1.832 3.719 3.713 6.018 8.852 6.018 14.527z" fill="#dddaec"/></g><g><path d="m302.95 166.209v12.552c0 4.142 3.357 7.5 7.5 7.5s7.5-3.358 7.5-7.5v-12.552c0-4.142-3.357-7.5-7.5-7.5s-7.5 3.358-7.5 7.5z"/><path d="m350.019 166.209v12.552c0 4.142 3.357 7.5 7.5 7.5s7.5-3.358 7.5-7.5v-12.552c0-4.142-3.357-7.5-7.5-7.5s-7.5 3.358-7.5 7.5z"/><path d="m471.68 188.514c13.807 0 27.612-5.253 38.122-15.759 1.407-1.406 2.198-3.314 2.198-5.303 0-1.99-.79-3.897-2.196-5.304l-49.078-49.078c10.945-3.821 18.82-14.247 18.82-26.479 0-15.113-12.019-27.472-27-28.019-3.444-15.974-17.682-27.983-34.67-27.983-8.94 0-17.119 3.326-23.363 8.805-5.451-12.589-17.996-21.419-32.564-21.419-11.348 0-21.468 5.357-27.964 13.676-6.496-8.319-16.616-13.676-27.964-13.676-14.568 0-27.113 8.831-32.564 21.419-6.244-5.479-14.423-8.805-23.363-8.805-16.989 0-31.226 12.009-34.67 27.983-14.981.547-27 12.906-27 28.019 0 12.232 7.875 22.657 18.821 26.479l-15.893 15.893h-111.562c-3.235 0-6.474.337-9.626 1.001-4.053.854-6.647 4.832-5.793 8.885.744 3.532 3.86 5.956 7.332 5.956.512 0 1.032-.053 1.553-.163 2.138-.45 4.336-.679 6.534-.679h96.56l-18.184 18.185c-1.407 1.407-2.197 3.314-2.197 5.304 0 1.989.791 3.897 2.198 5.303 10.51 10.506 24.314 15.759 38.121 15.759 6.516 0 13.028-1.186 19.198-3.526 2.135 6.298 4.955 12.355 8.464 18.083 7.622 12.403 18.125 22.779 30.55 30.226.052 43.781 35.687 79.387 79.48 79.387 20.794 0 40.453-7.973 55.355-22.451 2.972-2.886 3.04-7.634.154-10.605-2.886-2.97-7.634-3.04-10.605-.153-10.277 9.984-23.349 16.136-37.4 17.761v-21.468c13.444-3.361 23.433-15.538 23.433-30.008 0-4.142-3.357-7.5-7.5-7.5s-7.5 3.358-7.5 7.5c0 8.785-7.147 15.932-15.933 15.932s-15.933-7.147-15.933-15.932c0-4.142-3.357-7.5-7.5-7.5s-7.5 3.358-7.5 7.5c0 14.47 9.989 26.647 23.433 30.008v21.467c-32.034-3.728-56.984-31.012-56.984-64.03v-4.28c0-2.772-1.529-5.318-3.977-6.621-11.81-6.286-21.767-15.652-28.789-27.077-3.399-5.548-6.029-11.469-7.874-17.647 1.931-1.465 3.792-3.065 5.553-4.826 8.295-8.301 13.533-18.795 15.2-30.17.16.002.319.01.479.01 8.94 0 17.119-3.326 23.363-8.805 5.451 12.589 17.996 21.419 32.564 21.419 11.348 0 21.468-5.357 27.964-13.676 6.496 8.319 16.616 13.676 27.964 13.676 14.568 0 27.113-8.831 32.564-21.419 6.244 5.479 14.423 8.805 23.363 8.805.161 0 .319-.008.479-.01 1.668 11.375 6.906 21.87 15.203 30.173 1.759 1.758 3.617 3.356 5.545 4.82-5.706 19.125-18.845 35.252-36.665 44.725-2.449 1.302-3.979 3.849-3.979 6.623v4.28c0 8.309-1.551 16.377-4.608 23.981-1.546 3.843.316 8.211 4.159 9.757.918.369 1.864.543 2.797.543 2.971 0 5.783-1.778 6.96-4.703 3.766-9.362 5.681-19.28 5.692-29.482 8.691-5.198 16.334-11.776 22.723-19.376 17.542 4.201 30.318 20.062 30.318 38.46 0 21.808-17.742 39.55-39.55 39.55h-1.181c-3.188 0-6.026 2.015-7.079 5.023s-.089 6.354 2.404 8.341c7.471 5.955 11.755 14.836 11.755 24.365 0 17.17-13.969 31.14-31.14 31.14h-7.28c-2.445 0-4.736 1.192-6.141 3.194-1.403 2.001-1.744 4.562-.911 6.861.997 2.75 1.502 5.639 1.502 8.585 0 13.834-11.255 25.09-25.09 25.09h-246.077c-6.702 0-13.005-2.611-17.747-7.353-4.735-4.735-7.343-11.035-7.343-17.737 0-2.949.506-5.832 1.505-8.569.839-2.3.503-4.864-.9-6.871-1.403-2.006-3.697-3.201-6.146-3.201h-7.29c-17.171 0-31.14-13.969-31.14-31.14 0-9.528 4.285-18.41 11.755-24.366 2.492-1.987 3.457-5.332 2.404-8.341-1.052-3.009-3.892-5.023-7.079-5.023h-1.18c-21.808 0-39.55-17.742-39.55-39.55s17.742-39.55 39.55-39.55h1.18c3.188 0 6.027-2.015 7.079-5.023 1.053-3.008.089-6.354-2.403-8.341-7.471-5.957-11.756-14.837-11.756-24.366 0-5.915 1.668-11.674 4.825-16.655 2.217-3.499 1.179-8.132-2.32-10.35-3.499-2.216-8.132-1.18-10.35 2.32-4.681 7.386-7.155 15.922-7.155 24.685 0 8.822 2.477 17.269 7.033 24.515-23.384 6.15-40.682 27.476-40.682 52.765s17.298 46.614 40.683 52.765c-4.557 7.247-7.033 15.693-7.033 24.516 0 24.771 19.621 45.045 44.138 46.097-.111 1.22-.167 2.448-.167 3.683 0 10.709 4.168 20.775 11.737 28.343 5.775 5.774 13.001 9.564 20.853 11.042v45.033c0 16.633 13.532 30.165 30.165 30.165 9.025 0 17.132-3.99 22.664-10.292 5.533 6.302 13.639 10.292 22.665 10.292 16.632 0 30.164-13.532 30.164-30.165v-44.329h49.765v44.329c0 16.633 13.531 30.165 30.164 30.165 9.025 0 17.132-3.99 22.665-10.292 5.532 6.302 13.639 10.292 22.664 10.292 16.633 0 30.165-13.532 30.165-30.165v-45.043c18.531-3.523 32.589-19.834 32.589-39.376 0-1.234-.056-2.463-.167-3.683 24.517-1.052 44.137-21.326 44.137-46.097 0-8.823-2.477-17.269-7.032-24.516 23.385-6.15 40.683-27.476 40.683-52.765 0-23.378-14.965-43.782-36.246-51.382 2.916-5.06 5.352-10.415 7.245-16.006 6.163 2.337 12.668 3.52 19.179 3.52zm-331.305 290.512c-8.362 0-15.165-6.803-15.165-15.165v-44.325h30.329v44.325c0 8.362-6.803 15.165-15.164 15.165zm60.493-15.164c0 8.362-6.803 15.165-15.164 15.165-8.362 0-15.165-6.803-15.165-15.165v-44.325h30.329zm94.929 15.164c-8.361 0-15.164-6.803-15.164-15.165v-44.325h30.329v44.325c0 8.362-6.803 15.165-15.165 15.165zm60.494-15.164c0 8.362-6.803 15.165-15.165 15.165-8.361 0-15.164-6.803-15.164-15.165v-44.325h30.329zm-132.485-301.716c-13.358 13.354-34.093 14.95-49.217 4.79l43.842-43.842c3.554 7.02 9.377 12.701 16.495 16.083-.999 8.669-4.846 16.69-11.12 22.969zm173.606-55.017c0-4.142-3.357-7.5-7.5-7.5s-7.5 3.358-7.5 7.5v12.615c0 11.284-9.18 20.464-20.464 20.464s-20.464-9.18-20.464-20.464c0-4.142-3.357-7.5-7.5-7.5s-7.5 3.358-7.5 7.5c0 11.284-9.18 20.464-20.464 20.464s-20.464-9.18-20.464-20.464v-12.615c0-4.142-3.357-7.5-7.5-7.5s-7.5 3.358-7.5 7.5c0 11.284-9.18 20.464-20.464 20.464s-20.464-9.18-20.464-20.464c0-4.142-3.358-7.5-7.5-7.5h-5.668c-7.189 0-13.038-5.849-13.038-13.038s5.849-13.038 13.038-13.038h5.668c4.142 0 7.5-3.358 7.5-7.5 0-11.284 9.18-20.464 20.464-20.464s20.464 9.18 20.464 20.464c0 4.142 3.357 7.5 7.5 7.5s7.5-3.358 7.5-7.5v-12.615c0-11.284 9.18-20.464 20.464-20.464s20.464 9.18 20.464 20.464c0 4.142 3.357 7.5 7.5 7.5s7.5-3.358 7.5-7.5c0-11.284 9.18-20.464 20.464-20.464s20.464 9.18 20.464 20.464v12.615c0 4.142 3.357 7.5 7.5 7.5s7.5-3.358 7.5-7.5c0-11.284 9.18-20.464 20.464-20.464s20.464 9.18 20.464 20.464c0 4.142 3.357 7.5 7.5 7.5h5.668c7.189 0 13.038 5.849 13.038 13.038s-5.849 13.038-13.038 13.038h-5.668c-4.143 0-7.5 3.358-7.5 7.5 0 11.284-9.18 20.464-20.464 20.464s-20.464-9.181-20.464-20.464zm35.63 32.048c7.118-3.382 12.941-9.063 16.496-16.083l43.842 43.842c-15.121 10.16-35.855 8.564-49.214-4.787-6.277-6.281-10.124-14.302-11.124-22.972z"/></g></g></svg>