<svg id="Capa_1" enable-background="new 0 0 497 497" height="512" viewBox="0 0 497 497" width="512" xmlns="http://www.w3.org/2000/svg"><g><path d="m361 248.499-150.5 22.5-100.5-22.5s-50 0-50-68 50-68 50-68h251z" fill="#ab7b64"/><path d="m361 236.139v12.36l-144.865 15.665-106.135-15.665s-23.99 0-38.73-22.61c8.26 2.61 14.49 2.61 14.49 2.61h236.23c9.53 5.11 20.43 8 32.01 8 2.36 0 4.7-.12 7-.36z" fill="#9a6a53"/><path d="m166 163.999h-104.89c.79-5.58 1.99-10.56 3.49-15h101.4c4.14 0 7.5 3.36 7.5 7.5s-3.36 7.5-7.5 7.5z" fill="#ab7b64"/><path d="m214.5 204.499c0 4.14-3.36 7.5-7.5 7.5h-142.4c-1.5-4.44-2.7-9.42-3.49-15h145.89c4.14 0 7.5 3.36 7.5 7.5z" fill="#ab7b64"/><path d="m244.5 156.499c0 4.14-3.36 7.5-7.5 7.5h-30c-4.14 0-7.5-3.36-7.5-7.5s3.36-7.5 7.5-7.5h30c4.14 0 7.5 3.36 7.5 7.5z" fill="#ab7b64"/><path d="m302.5 204.499c0 4.14-3.36 7.5-7.5 7.5h-40c-4.14 0-7.5-3.36-7.5-7.5s3.36-7.5 7.5-7.5h40c4.14 0 7.5 3.36 7.5 7.5z" fill="#ab7b64"/><g><path d="m173.5 156.499c0 4.14-3.36 7.5-7.5 7.5h-104.89c.79-5.58 1.99-10.56 3.49-15h101.4c4.14 0 7.5 3.36 7.5 7.5z" fill="#9a6a53"/></g><g><path d="m244.5 156.499c0 4.14-3.36 7.5-7.5 7.5h-30c-4.14 0-7.5-3.36-7.5-7.5s3.36-7.5 7.5-7.5h30c4.14 0 7.5 3.36 7.5 7.5z" fill="#9a6a53"/></g><g><path d="m214.5 204.499c0 4.14-3.36 7.5-7.5 7.5h-142.4c-1.5-4.44-2.7-9.42-3.49-15h145.89c4.14 0 7.5 3.36 7.5 7.5z" fill="#9a6a53"/></g><g><path d="m315 211.999h-60c-4.14 0-7.5-3.36-7.5-7.5s3.36-7.5 7.5-7.5h50 .02z" fill="#9a6a53"/></g><circle cx="361" cy="180.499" fill="#f3d69e" r="68"/><path d="m429 180.499c0 37.56-30.44 68-68 68-18.35 0-35-7.27-47.23-19.09 10.69 7.01 23.48 11.09 37.23 11.09 37.56 0 68-30.44 68-68 0-19.21-7.96-36.56-20.77-48.91 18.53 12.15 30.77 33.1 30.77 56.91z" fill="#efcb83"/><g><path d="m326.764 204.471c-2.789 0-5.466-1.562-6.76-4.241-2.988-6.188-4.504-12.827-4.504-19.73 0-25.089 20.411-45.5 45.5-45.5 4.143 0 7.5 3.357 7.5 7.5s-3.357 7.5-7.5 7.5c-16.817 0-30.5 13.683-30.5 30.5 0 4.626 1.014 9.07 3.012 13.209 1.801 3.729.237 8.214-3.493 10.015-1.051.507-2.163.747-3.255.747z" fill="#edc472"/></g><g><path d="m361 225.999c-4.781 0-9.497-.743-14.018-2.21-3.94-1.277-6.099-5.508-4.82-9.447 1.278-3.942 5.511-6.103 9.447-4.82 3.024.98 6.184 1.478 9.391 1.478 16.817 0 30.5-13.683 30.5-30.5 0-4.143 3.357-7.5 7.5-7.5s7.5 3.357 7.5 7.5c0 25.088-20.411 45.499-45.5 45.499z" fill="#edc472"/></g><path d="m293 384.499h-243s-50 1.184-50-67.408 50-68.592 50-68.592h243z" fill="#ab7b64"/><path d="m293 364.499v20h-243s-22.63.53-37.44-20z" fill="#9a6a53"/><g fill="#ab7b64"><path d="m52.89 297.999h-51.41c.94-5.61 2.29-10.59 3.95-15h47.46c4.14 0 7.5 3.36 7.5 7.5s-3.36 7.5-7.5 7.5z"/><path d="m101.5 341.499c0 4.14-3.36 7.5-7.5 7.5h-89.32c-1.51-4.43-2.72-9.4-3.53-15h92.85c4.14 0 7.5 3.36 7.5 7.5z"/><path d="m236.5 341.499c0 4.14-3.36 7.5-7.5 7.5h-55c-4.14 0-7.5-3.36-7.5-7.5s3.36-7.5 7.5-7.5h55c4.14 0 7.5 3.36 7.5 7.5z"/><path d="m230 297.999h-110c-4.14 0-7.5-3.36-7.5-7.5s3.36-7.5 7.5-7.5h110c4.14 0 7.5 3.36 7.5 7.5s-3.36 7.5-7.5 7.5z"/><path d="m429 248.499h-140.479v136l141.607-.016z"/></g><path d="m430.13 384.479-137.13.02v-20l136.96-.02z" fill="#9a6a53"/><circle cx="429" cy="316.499" fill="#f3d69e" r="68"/><g><path d="m417.912 360.351c-.727 0-1.465-.106-2.195-.33-18.969-5.799-32.217-23.695-32.217-43.521 0-15.906 8.111-30.398 21.696-38.766 3.526-2.172 8.147-1.075 10.319 2.452 2.173 3.527 1.074 8.147-2.452 10.319-9.119 5.616-14.563 15.334-14.563 25.994 0 13.291 8.883 25.289 21.602 29.178 3.962 1.211 6.191 5.403 4.979 9.364-.987 3.231-3.958 5.31-7.169 5.31z" fill="#edc472"/></g><g><path d="m452.034 354.208c-2.258 0-4.489-1.015-5.965-2.946-2.516-3.291-1.886-7.998 1.405-10.513 7.643-5.84 12.025-14.679 12.025-24.25 0-10.132-5.035-19.586-13.47-25.288-3.431-2.319-4.332-6.982-2.012-10.414 2.32-3.43 6.982-4.333 10.414-2.012 12.565 8.495 20.067 22.594 20.067 37.714 0 14.284-6.531 27.468-17.918 36.168-1.357 1.039-2.958 1.541-4.546 1.541z" fill="#edc472"/></g><g><path d="m237.5 290.499c0 4.14-3.36 7.5-7.5 7.5h-110c-4.14 0-7.5-3.36-7.5-7.5s3.36-7.5 7.5-7.5h110c4.14 0 7.5 3.36 7.5 7.5z" fill="#9a6a53"/></g><g><path d="m60.39 290.499c0 4.14-3.36 7.5-7.5 7.5h-51.41c.94-5.61 2.29-10.59 3.95-15h47.46c4.14 0 7.5 3.36 7.5 7.5z" fill="#9a6a53"/></g><g><path d="m101.5 341.499c0 4.14-3.36 7.5-7.5 7.5h-89.32c-1.51-4.43-2.72-9.4-3.53-15h92.85c4.14 0 7.5 3.36 7.5 7.5z" fill="#9a6a53"/></g><g><path d="m236.5 341.499c0 4.14-3.36 7.5-7.5 7.5h-55c-4.14 0-7.5-3.36-7.5-7.5s3.36-7.5 7.5-7.5h55c4.14 0 7.5 3.36 7.5 7.5z" fill="#9a6a53"/></g><circle cx="293" cy="316.499" fill="#f3d69e" r="68"/><g><path d="m273.419 356.561c-1.32 0-2.655-.348-3.868-1.079-13.602-8.207-22.051-23.145-22.051-38.982 0-7.144 1.708-14.271 4.94-20.611 1.881-3.688 6.4-5.157 10.088-3.275 3.69 1.881 5.157 6.397 3.275 10.088-2.192 4.301-3.304 8.943-3.304 13.799 0 10.775 5.533 20.547 14.801 26.139 3.546 2.141 4.687 6.75 2.547 10.297-1.409 2.332-3.887 3.624-6.428 3.624z" fill="#edc472"/></g><g><path d="m307.78 359.01c-2.921 0-5.697-1.717-6.908-4.576-1.616-3.813.165-8.216 3.979-9.832 11.328-4.799 18.648-15.83 18.648-28.103 0-16.817-13.683-30.5-30.5-30.5-4.143 0-7.5-3.357-7.5-7.5s3.357-7.5 7.5-7.5c25.089 0 45.5 20.411 45.5 45.5 0 18.308-10.911 34.761-27.797 41.914-.954.406-1.946.597-2.922.597z" fill="#edc472"/></g><path d="m497 316.499c0 37.56-30.44 68-68 68-27.58 0-51.32-16.41-61.99-40 12.36 16.97 32.38 28 54.99 28 37.56 0 68-30.44 68-68 0-9.98-2.15-19.45-6.01-27.99 8.19 11.22 13.01 25.04 13.01 39.99z" fill="#efcb83"/><path d="m361 316.499c0 5.03-.55 9.92-1.58 14.64-6.69 30.52-33.89 53.36-66.42 53.36-27.58 0-51.32-16.41-61.99-40 12.36 16.97 32.38 28 54.99 28 37.56 0 68-30.44 68-68 0-9.98-2.15-19.45-6.01-27.99 3.02 4.12 5.57 8.6 7.59 13.35 3.49 8.18 5.42 17.18 5.42 26.64z" fill="#efcb83"/></g></svg>